<svg xmlns="http://www.w3.org/2000/svg" viewBox="0 0 625.08 188.67"><title>Logo</title><g id="Layer_2" data-name="Layer 2"><g id="Layer_1-2" data-name="Layer 1"><path d="M17.86,129.49q.38.63.63.63t.63-.63l3.39-5.79a20,20,0,0,0,1.54-3.12,6.2,6.2,0,0,0,.47-1.73,1.4,1.4,0,0,0-.56-1.29,4.1,4.1,0,0,0-1.26-.5c-.46-.11-.88-.21-1.26-.32a.68.68,0,0,1-.56-.72c0-.55.35-.82,1.06-.82.17,0,.76.06,1.77.19a42.48,42.48,0,0,0,4.65.19,27.26,27.26,0,0,0,3.11-.16,16.6,16.6,0,0,1,2-.16c.76,0,1.13.23,1.13.7s-.29.84-.88.88-1.17.1-1.76.18a5.23,5.23,0,0,0-2.51,1.11,9.48,9.48,0,0,0-2.33,2.56l-6.92,11.08a1.68,1.68,0,0,0-.31.82,2.39,2.39,0,0,0,.31,1l7.93,14.12c.71,1.31,1.35,2.39,1.92,3.23a6.19,6.19,0,0,0,1.6,1.77,2.49,2.49,0,0,0,.91.42l.88.15a2,2,0,0,1,.66.22.59.59,0,0,1,.25.54c0,.59-.48.89-1.44.89a24.06,24.06,0,0,1-2.55-.22,37,37,0,0,0-4.56-.22c-1.76,0-3.12.05-4.09.15s-1.55.16-1.76.16c-.63,0-.94-.28-.94-.85s.33-.91,1-.91c1.92,0,2.89-.54,2.89-1.64a7.75,7.75,0,0,0-1.07-2.77l-5.22-9.32q-.32-.57-.57-.57c-.08,0-.25.19-.5.57l-5.15,8.5a10.83,10.83,0,0,0-1.07,2.24A5.6,5.6,0,0,0,9,151.35a1,1,0,0,0,.66,1,8.44,8.44,0,0,0,1.42.47c.5.13,1,.25,1.41.38s.66.38.66.75c0,.63-.5.95-1.51.95a15.91,15.91,0,0,1-2.36-.22,18.61,18.61,0,0,0-3-.22,27.33,27.33,0,0,0-3.24.16,20.48,20.48,0,0,1-2.05.15c-.63,0-.94-.25-.94-.75a.75.75,0,0,1,.63-.79,13.46,13.46,0,0,0,1.66-.56,10.13,10.13,0,0,0,2.43-1.52,13.8,13.8,0,0,0,2.89-3.56l6.54-10.51a1.91,1.91,0,0,0,.31-1,1.88,1.88,0,0,0-.25-1L5.22,120c-1-1.68-2-2.66-2.89-3a3.56,3.56,0,0,0-.79-.15l-.75-.07a1.48,1.48,0,0,1-.57-.15.47.47,0,0,1-.22-.44c0-.68.44-1,1.32-1a20.21,20.21,0,0,1,2.86.25,29.3,29.3,0,0,0,4.18.25,40,40,0,0,0,4.47-.19c1.09-.12,1.8-.19,2.13-.19.72,0,1.07.28,1.07.82a.78.78,0,0,1-.59.85,9.32,9.32,0,0,1-1.35.25,5.3,5.3,0,0,0-1.36.35,1,1,0,0,0-.59,1.07,6.67,6.67,0,0,0,1.06,2.77Z"/><path d="M45.27,119.66a3.49,3.49,0,0,0-.25-1.51,1.08,1.08,0,0,0-1.07-.5,2.7,2.7,0,0,0-1.25.28,2.54,2.54,0,0,1-1.14.29c-.46,0-.69-.32-.69-1q0-1.26,3.84-2a58.57,58.57,0,0,1,11-.79A20.7,20.7,0,0,1,63.79,116a17.42,17.42,0,0,1,6.13,4.21,18.6,18.6,0,0,1,3.87,6.51A24.79,24.79,0,0,1,75.14,135a25.1,25.1,0,0,1-1.29,8.3,16.77,16.77,0,0,1-3.8,6.29,17.3,17.3,0,0,1-6.13,4A22.83,22.83,0,0,1,55.59,155a29.63,29.63,0,0,1-4.5-.31,24.43,24.43,0,0,0-3.68-.32,17.76,17.76,0,0,0-2.77.22,14.87,14.87,0,0,1-2.51.22c-.88,0-1.32-.33-1.32-1a.76.76,0,0,1,.22-.63,1.11,1.11,0,0,1,.57-.25,3.64,3.64,0,0,1,.78-.07,3.33,3.33,0,0,0,.88-.12,4.27,4.27,0,0,0,1.16-.44,1.46,1.46,0,0,0,.6-.66,2.84,2.84,0,0,0,.22-1.07c0-.44,0-1,0-1.67Zm6.51,32c.57.9,1.79,1.35,3.68,1.35a11.56,11.56,0,0,0,5.47-1.29,12.1,12.1,0,0,0,4.18-3.64,17.33,17.33,0,0,0,2.67-5.76,28.6,28.6,0,0,0,1-7.67,27.08,27.08,0,0,0-1-7.33,18.81,18.81,0,0,0-2.64-5.81,12.41,12.41,0,0,0-4.08-3.81,10.6,10.6,0,0,0-5.29-1.35,12.17,12.17,0,0,0-2.57.22,3.43,3.43,0,0,0-1.45.66,2,2,0,0,0-.66,1.1,6.78,6.78,0,0,0-.16,1.61v27.1A9.24,9.24,0,0,0,51.78,151.7Z"/><path d="M107.21,147a37.23,37.23,0,0,0,1.26,3.52,4.72,4.72,0,0,0,1.82,2.14,3.64,3.64,0,0,0,1.6.72c.49.07.73.29.73.66,0,.59-.44.88-1.32.88a15.85,15.85,0,0,1-2.11-.18,21.81,21.81,0,0,0-3.17-.19c-1.76,0-3.18.05-4.25.16s-1.81.15-2.23.15c-.71,0-1.07-.25-1.07-.75,0-.67.42-1,1.26-1a4.44,4.44,0,0,0,2.07-.31,1.3,1.3,0,0,0,.51-1.2,12.45,12.45,0,0,0-.57-2.83l-2.45-8.05c-.09-.33-.4-.5-1-.5H90.55a.69.69,0,0,0-.41.16.65.65,0,0,0-.28.41l-1.51,5.59a26.24,26.24,0,0,0-.95,4.85,1.61,1.61,0,0,0,.38,1.25,2.51,2.51,0,0,0,1.26.44,9.54,9.54,0,0,1,1.88.44.94.94,0,0,1,.63.95c0,.5-.35.75-1.07.75a16,16,0,0,1-2.07-.19,26.79,26.79,0,0,0-3.4-.19,17,17,0,0,0-2.42.16,12.58,12.58,0,0,1-1.73.16c-.75,0-1.13-.28-1.13-.82a.68.68,0,0,1,.32-.66,2.58,2.58,0,0,1,.78-.22l1-.13a2.09,2.09,0,0,0,1-.44,3.78,3.78,0,0,0,1.32-1.79c.29-.77.6-1.73.94-2.86l10-32.45c.16-.46.3-.82.41-1.1a.63.63,0,0,1,.66-.41c.46,0,.75.28.88.82a20.57,20.57,0,0,0,.63,2.14ZM94.26,125.13c-.17,0-.3.17-.38.51l-3,11.13a1.85,1.85,0,0,0-.06.44v.18c0,.26.15.38.44.38h6.29a.57.57,0,0,0,.38-.16.46.46,0,0,0,.19-.34,4.82,4.82,0,0,0-.13-.63l-3.4-10.94C94.51,125.32,94.38,125.13,94.26,125.13Z"/><path d="M619.87,120.89l-30.59.09a20.47,20.47,0,0,1,30.59-.09Z" style="fill:#5ebd3e"/><path d="M623.93,127.76l-38.67.11a20.55,20.55,0,0,1,4-6.89l30.59-.09A20.46,20.46,0,0,1,623.93,127.76Z" style="fill:#ffb900"/><path d="M625.08,134.47v.16l-40.93.12v-.16a20.2,20.2,0,0,1,1.11-6.72l38.67-.11A20.16,20.16,0,0,1,625.08,134.47Z" style="fill:#f78200"/><path d="M625.08,134.63a20.5,20.5,0,0,1-1.13,6.63,2.25,2.25,0,0,0-.08.24l-38.47.12a1.25,1.25,0,0,0-.09-.25,20.41,20.41,0,0,1-1.16-6.62Z" style="fill:#e23838"/><path d="M624,141.26a2.25,2.25,0,0,0-.08.24,20.4,20.4,0,0,1-3.92,6.58.15.15,0,0,1-.05.06l-30.5.09,0-.06a20.55,20.55,0,0,1-4-6.55,1.25,1.25,0,0,0-.09-.25Z" style="fill:#973999"/><path d="M620,148.08a.15.15,0,0,1-.05.06,20.47,20.47,0,0,1-30.5.09l0-.06Z" style="fill:#009cdf"/><path d="M157.69,151.82a39.51,39.51,0,0,1-15,2.68q-8.39,0-13.23-2.68a12.79,12.79,0,0,1-6.35-8.1,31.82,31.82,0,0,1-.5-12.76A103.07,103.07,0,0,1,127,113.32l9.82-30.22q6.77-20.82,16.5-31t26-10.13q16.31,0,19.43,10.09T195,83.1l-9.82,30.22A120.21,120.21,0,0,1,178.11,131a57,57,0,0,1-8.8,12.76A32.26,32.26,0,0,1,157.69,151.82Zm-11.58-7.73a18,18,0,0,0,7.5-1.52,20,20,0,0,0,5.71-3.83,25.85,25.85,0,0,0,4.57-6.54,78.37,78.37,0,0,0,3.69-8.11q1.48-3.86,3.49-10l10.3-31.69c1.33-4.11,2.35-7.46,3-10A62.93,62.93,0,0,0,186,64.21a14.32,14.32,0,0,0-.32-6.54,7.78,7.78,0,0,0-3.23-3.82,11.86,11.86,0,0,0-6.5-1.52,20.92,20.92,0,0,0-6.38.92,14.28,14.28,0,0,0-5.21,3,29.92,29.92,0,0,0-4.11,4.43,32.24,32.24,0,0,0-3.51,6.12q-1.74,3.78-3,7.14t-2.87,8.43l-10.3,31.69q-1.65,5.07-2.6,8.43t-1.68,7.14a21.68,21.68,0,0,0-.47,6.13,13.6,13.6,0,0,0,1.24,4.42,5.86,5.86,0,0,0,3.26,3A15.44,15.44,0,0,0,146.11,144.09Z"/><path d="M224.26,154.5q-10.77,0-16.06-10.41l-2.81,8.66H191.57L241.2,0H255L237.9,52.7Q250,42,262.19,42q6.09,0,9.83,2.49A12.37,12.37,0,0,1,277.11,51a26.63,26.63,0,0,1,1,9.85,64.76,64.76,0,0,1-1.67,11.66q-1.37,5.76-3.73,13l-7.48,23q-2.82,8.66-5.77,15.47a89.76,89.76,0,0,1-6.69,12.67,47.74,47.74,0,0,1-7.94,9.67,32.06,32.06,0,0,1-9.4,6A29,29,0,0,1,224.26,154.5Zm1.26-11q8.74,0,14.3-8.15t11.57-26.67l7.54-23.22q5.7-17.49,5.24-25.06t-9.38-7.55q-8.39,0-19.68,8.38L211,135.61Q215.94,143.53,225.52,143.53Z"/><path d="M271.81,152.75,321.44,0h13.92L285.72,152.75Z"/><path d="M309.58,152.75,345,43.67h13.82L323.4,152.75ZM349.9,28.65,356,9.86h13.91l-6.1,18.79Z"/><path d="M378.15,188.67l14.22-43.76q-11.28,9.5-21.72,9.59-14.1,0-16.78-10.6t5.31-35.19l6.55-20.18q2.94-9,5.8-15.84a92.25,92.25,0,0,1,6.55-12.81,46.75,46.75,0,0,1,7.78-9.76,31.24,31.24,0,0,1,9.3-5.95A29.51,29.51,0,0,1,406.55,42q11,.09,16.15,9.58l2.57-7.92h13.82L392,188.67ZM377,143.53q8.2,0,18.22-7.28l24.57-75.63q-5.86-7.74-13.7-7.74a17,17,0,0,0-14.22,7.32Q386.38,67.54,381,84.11l-8.35,25.7q-5.81,17.88-5.25,25.8T377,143.53Z"/><path d="M440.14,154.4q-8.19,0-10.55-6.08t1.27-17.22l28.4-87.43h13.91l-27.48,84.57q-2.69,8.3-1.34,11.79c.9,2.34,3.13,3.5,6.7,3.5q9.3,0,22.81-10.68l29-89.18h13.82L481.22,152.75H467.4l3.92-12.07Q454.7,154.41,440.14,154.4Z"/><path d="M529.2,154.5q-15.66,0-19.43-9.68t3.84-33.07l8.95-27.55Q527.74,68.27,534,58.92t13.85-13.13a39.62,39.62,0,0,1,18-3.78,29.4,29.4,0,0,1,11.21,1.8,13.64,13.64,0,0,1,6.44,5.11q2.14,3.31,2.2,9a56.89,56.89,0,0,1-1.45,12.53Q582.76,77.3,579.61,87l-3.3,9.86h-44L527,113.13q-5.51,17-4.52,24t10,7A18.66,18.66,0,0,0,545,139.52q5.36-4.56,9.25-16.53l2.45-7.56h13.54l-2,6.09q-5.14,15.84-14.57,24.41T529.2,154.5Zm5.65-65.6h30.49l2.94-9c1.23-3.8,2.17-7,2.8-9.48a47.61,47.61,0,0,0,1.29-7.51,12.81,12.81,0,0,0-.54-5.85,6.92,6.92,0,0,0-3.22-3.41,12.93,12.93,0,0,0-6.22-1.29,18.1,18.1,0,0,0-14.18,6.08q-5.43,6.08-11,23.12Z"/></g></g></svg>